<?xml version="1.0" encoding="utf-8" ?>
 <svg xmlns="http://www.w3.org/2000/svg" viewBox="0 0 100 100">
  <!-- Rotate and scale the board -->
  <g transform-origin="50 50" transform="rotate(45) scale(0.65)">
    <!-- Draw grid lines -->
    <rect x="0" y="0" width="100" height="100" fill="white" stroke="black" stroke-width="2"/>

    <!-- Vertical lines -->
    <line x1="11.1" y1="0" x2="11.1" y2="100" stroke="black" stroke-width="0.5"/>
    <line x1="22.2" y1="0" x2="22.2" y2="100" stroke="black" stroke-width="0.5"/>
    <line x1="33.3" y1="0" x2="33.3" y2="100" stroke="black" stroke-width="2"/> <!-- Thick line -->
    <line x1="44.4" y1="0" x2="44.4" y2="100" stroke="black" stroke-width="0.5"/>
    <line x1="55.5" y1="0" x2="55.5" y2="100" stroke="black" stroke-width="0.5"/>
    <line x1="66.6" y1="0" x2="66.6" y2="100" stroke="black" stroke-width="2"/> <!-- Thick line -->
    <line x1="77.7" y1="0" x2="77.7" y2="100" stroke="black" stroke-width="0.5"/>
    <line x1="88.8" y1="0" x2="88.8" y2="100" stroke="black" stroke-width="0.5"/>

    <!-- Horizontal lines -->
    <line x1="0" y1="11.1" x2="100" y2="11.1" stroke="black" stroke-width="0.5"/>
    <line x1="0" y1="22.2" x2="100" y2="22.2" stroke="black" stroke-width="0.5"/>
    <line x1="0" y1="33.3" x2="100" y2="33.3" stroke="black" stroke-width="2"/> <!-- Thick line -->
    <line x1="0" y1="44.4" x2="100" y2="44.4" stroke="black" stroke-width="0.5"/>
    <line x1="0" y1="55.5" x2="100" y2="55.5" stroke="black" stroke-width="0.5"/>
    <line x1="0" y1="66.6" x2="100" y2="66.6" stroke="black" stroke-width="2"/> <!-- Thick line -->
    <line x1="0" y1="77.7" x2="100" y2="77.7" stroke="black" stroke-width="0.5"/>
    <line x1="0" y1="88.8" x2="100" y2="88.8" stroke="black" stroke-width="0.5"/>
  </g>
  
</svg>